<?xml version="1.0" encoding="utf-8"?>
<!-- Generator: Adobe Illustrator 23.1.0, SVG Export Plug-In . SVG Version: 6.00 Build 0)  -->
<svg version="1.1" id="Layer_1" xmlns="http://www.w3.org/2000/svg" xmlns:xlink="http://www.w3.org/1999/xlink" x="0px" y="0px"
	 viewBox="0 0 496 496" style="enable-background:new 0 0 496 496;" xml:space="preserve">
<style type="text/css">
	.st0{fill:#F0BC5E;}
</style>
<path class="st0" d="M264,76.7L235.7,105c7.8,13.9,12.3,29.9,12.3,47c0,53-43,96-96,96c-17.1,0-33.1-4.5-47-12.3L76.7,264L232,419.3
	L419.3,232L264,76.7z"/>
<path d="M424,144c0,4.4-3.6,8-8,8s-8-3.6-8-8s3.6-8,8-8S424,139.6,424,144z"/>
<path d="M360,80c0,4.4-3.6,8-8,8s-8-3.6-8-8s3.6-8,8-8S360,75.6,360,80z"/>
<path class="st0" d="M401.2,489.2l-11.3-90.4L368,420.7l-50.3-50.3l-35.3,35.3l50.3,50.3l-21.9,21.9L401.2,489.2z"/>
<path class="st0" d="M489.2,401.2l-11.3-90.4L456,332.7l-50.3-50.3l-35.3,35.3l50.3,50.3l-21.9,21.9L489.2,401.2z"/>
<path d="M74.3,357.7l11.3-11.3l48,48l-11.3,11.3L74.3,357.7z"/>
<path d="M362.3,101.7l11.3-11.3l32,32l-11.3,11.3L362.3,101.7z"/>
<path d="M288,212.7c-5.2,5.2-8,12-8,19.3c0,7.3,2.8,14.2,8,19.3l4.7,4.7c2.1,2.2,3.3,5,3.3,8s-1.2,5.9-3.3,8L280,284.7L267.3,272
	c-2.1-2.1-3.3-5-3.3-8s1.2-5.9,3.3-8l10.3-10.3l-11.3-11.3L256,244.7c-5.2,5.2-8,12-8,19.3c0,5.7,1.8,11.1,5,15.7l-10.7,10.7
	l11.3,11.3l10.3-10.3l16,16l24-24c5.2-5.2,8-12,8-19.3s-2.8-14.1-8-19.3l-4.7-4.7c-2.1-2.1-3.3-5-3.3-8s1.2-5.9,3.3-8l12.7-12.7
	l12.7,12.7c2.1,2.2,3.3,5,3.3,8s-1.2,5.9-3.3,8l-10.3,10.3l11.3,11.3l10.4-10.4c5.2-5.2,8-12,8-19.3c0-5.7-1.8-11.1-5-15.7
	l10.7-10.7l-11.3-11.3L328,204.7l-16-16L288,212.7z"/>
<path d="M482.3,151L345,13.7C336.3,5,324.3,0,312,0s-24.3,5-33,13.7l-59.5,59.5C201.4,57.5,177.8,48,152,48C94.7,48,48,94.7,48,152
	c0,25.8,9.5,49.4,25.1,67.6L13.7,279C5,287.7,0,299.7,0,312s5,24.3,13.7,33L151,482.3c8.7,8.7,20.7,13.7,33,13.7s24.3-5,33-13.7
	L482.3,217c8.7-8.7,13.7-20.7,13.7-33S491,159.7,482.3,151z M396.7,184h16l40,40L232,444.7L51.3,264l33.1-33.1
	c18.2,15.6,41.8,25.1,67.6,25.1c57.3,0,104-46.7,104-104c0-25.8-9.5-49.4-25.1-67.6L272,43.3l40,40v16L396.7,184z M152,64
	c48.5,0,88,39.5,88,88s-39.5,88-88,88s-88-39.5-88-88S103.5,64,152,64z M205.7,471c-5.7,5.7-13.6,9-21.7,9s-16-3.3-21.7-9L25,333.7
	c-5.7-5.7-9-13.6-9-21.7s3.3-16,9-21.7l15-15L220.7,456L205.7,471z M471,205.7l-7,7L419.3,168h-16L328,92.7v-16L283.3,32l7-7
	c5.7-5.7,13.6-9,21.7-9s16,3.3,21.7,9L471,162.3c5.7,5.7,9,13.6,9,21.7S476.7,200,471,205.7z"/>
<path d="M227,129.8l-36.1-31.6L138.5,157l-19.6-19.6L85,171.3l55.8,55.8L227,129.8z M107.6,171.3l11.3-11.3l20.2,20.2l53.1-59.5
	l12.1,10.6l-64.3,72.5L107.6,171.3z"/>
<path d="M146.3,293.7l11.3-11.3l80,80l-11.3,11.3L146.3,293.7z"/>
<path d="M170.3,269.7l11.3-11.3l80,80l-11.3,11.3L170.3,269.7z"/>
</svg>
