<?xml version="1.0" encoding="utf-8"?>
<!-- Generator: Adobe Illustrator 23.1.0, SVG Export Plug-In . SVG Version: 6.00 Build 0)  -->
<svg version="1.1" id="Layer_1" xmlns="http://www.w3.org/2000/svg" xmlns:xlink="http://www.w3.org/1999/xlink" x="0px" y="0px"
	 viewBox="0 0 496 496" style="enable-background:new 0 0 496 496;" xml:space="preserve">
<style type="text/css">
	.st0{fill:#F0BC5E;}
</style>
<path class="st0" d="M80,40h80v32H80V40z"/>
<path class="st0" d="M80,192h80v40H80V192z"/>
<path d="M176,368h16v16h-16V368z"/>
<path d="M144,368h16v16h-16V368z"/>
<path d="M112,368h16v16h-16V368z"/>
<path d="M248,0c-26.5,0-52.6,4.3-77.5,12.5l-9.1-7.3c-4.2-3.4-9.6-5.3-15-5.3H72C58.8,0,48,10.8,48,24v77.5
	C16.6,144.2,0,194.8,0,248c0,136.7,111.2,248,248,248s248-111.3,248-248S384.8,0,248,0z M407.7,416c-12.1,11.5-25.4,21.8-39.7,30.5
	V416H407.7z M240.5,400v16H352v32H224v-48H120c-13.2,0-24-10.8-24-24v-24h93.6l24,16h232.9c-6.9,11.4-14.8,22-23.4,32H240.5z
	 M218.4,352l-24-16H96v-64h128v-16H72c-4.4,0-8-3.6-8-8V80h320v168c0,4.4-3.6,8-8,8h-56v16h56c13.2,0,24-10.8,24-24V144h55.3
	c15.8,31.3,24.7,66.6,24.7,104s-8.9,72.7-24.7,104H218.4z M446.5,128H400V73C418.2,88.8,433.9,107.3,446.5,128z M248,16
	c29.8,0,58.3,5.7,84.5,16H194.8l-9.2-7.4C205.8,19,226.7,16,248,16z M72,16h74.4c1.8,0,3.6,0.6,5,1.8L189.2,48h176.2
	c6.4,3.8,12.6,7.9,18.6,12.2V64H64V24C64,19.6,67.6,16,72,16z M16,248c0-41.8,11.1-81.9,32-117.3V248c0,13.2,10.8,24,24,24h8v104
	c0,22.1,17.9,40,40,40h88v32h-32v16h156.5c-26.2,10.3-54.7,16-84.5,16C120.1,480,16,375.9,16,248z"/>
<path d="M80,32h80v16H80V32z"/>
<path d="M80,224h80v16H80V224z"/>
<path d="M80,192h64v16H80V192z"/>
<path class="st0" d="M272,341.3L184,224h48V112h80v112h48L272,341.3z"/>
</svg>
