<?xml version="1.0" encoding="utf-8"?>
<!-- Generator: Adobe Illustrator 23.0.1, SVG Export Plug-In . SVG Version: 6.00 Build 0)  -->
<svg version="1.1" id="Layer_1" xmlns="http://www.w3.org/2000/svg" xmlns:xlink="http://www.w3.org/1999/xlink" x="0px" y="0px"
	 viewBox="0 0 200 37" style="enable-background:new 0 0 200 37;" xml:space="preserve">
<style type="text/css">
	.st0{fill-rule:evenodd;clip-rule:evenodd;fill:#231F20;}
</style>
<g>
	<g>
		<path class="st0" d="M17.77,0.64c9.77,0.01,17.78,7.98,17.77,17.76c0,9.81-8.02,17.79-17.79,17.79C7.97,36.18,0,28.19,0,18.38
			C0,8.6,7.98,0.63,17.77,0.64L17.77,0.64z M15.31,33.76l7.58-13.16h-5.13l2.55-4.42h12.04l-2.55,4.43l-4.36-0.02l-7.69,13.36
			c8.56,0,15.57-7.01,15.57-15.57c0-8.53-7-15.53-15.56-15.53c-0.62,0-1.25,0.04-1.83,0.12L8.29,16.18l9.48,0L15.2,20.6L3.17,20.6
			l9.81-16.98C6.75,5.65,2.22,11.51,2.21,18.39C2.21,26.12,7.89,32.57,15.31,33.76z"/>
		<path class="st0" d="M128.96,27.33l1.9,0l1.2,7.25l4.32-7.25h2.08l-1.89,8.86h-1.27l1.63-7.59h-0.03l-4.56,7.59h-1.23l-1.23-7.59
			h-0.03l-1.7,7.59h-1.23L128.96,27.33z M145.73,29.72h-1.19l-0.69,3.26c-0.17,0.8-0.89,2.4-2.36,2.4c-0.74,0-1.18-0.51-1.18-1.18
			c0-0.14,0.02-0.39,0.06-0.61l0.8-3.87h-1.19l-0.71,3.42c-0.08,0.37-0.15,0.8-0.15,1.18c0,1.37,0.9,2.03,2.16,2.03
			c1.13,0,1.83-0.57,2.21-1.18h0.02l-0.2,1.03h1.12c0.05-0.38,0.13-0.72,0.18-0.99L145.73,29.72z M146.52,30.68l1.42,0l-0.56,2.7
			c-0.08,0.36-0.23,1.11-0.23,1.52c0,0.69,0.42,1.44,1.55,1.44c0.34,0,0.9-0.04,1.17-0.14l0.18-0.99c-0.23,0.1-0.59,0.17-0.84,0.17
			c-0.61,0-0.86-0.24-0.86-0.7c0-0.23,0.13-0.93,0.19-1.22l0.6-2.78h1.79l0.19-0.97h-1.78l0.41-1.94l-1.28,0.44l-0.32,1.5h-1.45
			L146.52,30.68z M157.79,29.72h-1.19l-0.69,3.26c-0.17,0.8-0.89,2.4-2.36,2.4c-0.74,0-1.18-0.51-1.18-1.18
			c0-0.14,0.03-0.39,0.06-0.61l0.8-3.87l-1.19,0l-0.71,3.42c-0.08,0.37-0.15,0.8-0.15,1.18c0,1.37,0.9,2.03,2.16,2.03
			c1.13,0,1.83-0.57,2.21-1.18h0.03l-0.2,1.03h1.12c0.05-0.38,0.13-0.72,0.18-0.99L157.79,29.72z M161.68,33.09
			c-0.9,0-2.26,0.24-2.26,1.42c0,0.57,0.49,0.88,1.07,0.88c1.21,0,1.97-1.21,2.11-2.3L161.68,33.09L161.68,33.09z M159.44,31.08
			c0.53-0.32,1.28-0.55,1.98-0.54c0.88,0,1.49,0.35,1.49,1.28c0,0.15-0.04,0.29-0.06,0.42c-0.29-0.01-0.61-0.04-0.86-0.04
			c-2.17,0-3.84,0.52-3.84,2.36c0,1.22,0.98,1.79,2.07,1.79c0.86,0,1.7-0.46,2.11-1.23h0.02l-0.21,1.08h1.1
			c0.17-1.14,0.43-2.35,0.68-3.56c0.06-0.3,0.11-0.72,0.11-1.01c0-1.55-1.26-2.06-2.57-2.06c-0.47,0-1.23,0.14-1.8,0.33
			L159.44,31.08z M165.08,36.2h1.2l2.02-9.52h-1.19L165.08,36.2z M171.47,36.2h1.29l0.88-4.04h3.12l0.24-1.12l-3.12,0l0.56-2.59
			l3.39,0l0.22-1.12h-4.65L171.47,36.2z M184.43,29.73h-1.19L182.55,33c-0.17,0.8-0.89,2.4-2.36,2.4c-0.74,0-1.18-0.51-1.18-1.18
			c0-0.14,0.02-0.39,0.06-0.61l0.8-3.87h-1.19l-0.71,3.42c-0.08,0.37-0.15,0.8-0.15,1.18c0,1.37,0.9,2.03,2.16,2.03
			c1.13,0,1.83-0.57,2.21-1.18h0.02l-0.2,1.03l1.12,0c0.05-0.38,0.13-0.73,0.18-0.99L184.43,29.73z M184.9,36.21h1.19l0.69-3.26
			c0.17-0.8,0.89-2.4,2.36-2.4c0.74,0,1.18,0.51,1.18,1.18c0,0.14-0.02,0.39-0.06,0.61l-0.8,3.87h1.19l0.71-3.42
			c0.08-0.37,0.15-0.8,0.15-1.18c0-1.37-0.9-2.03-2.16-2.03c-1.13,0-1.83,0.57-2.21,1.18h-0.02l0.2-1.03h-1.12
			c-0.05,0.38-0.13,0.72-0.18,0.99L184.9,36.21z M195.34,35.4c1.5,0,2.18-1.87,2.19-3.09c0-0.96-0.57-1.76-1.61-1.76
			c-1.41,0-2.14,1.79-2.14,3.01C193.76,34.58,194.25,35.4,195.34,35.4L195.34,35.4z M200,26.69h-1.19l-0.85,4.11h-0.03
			c-0.37-0.84-1.21-1.22-2.08-1.22c-2.21,0-3.35,2.03-3.35,4.06c0,1.47,0.84,2.72,2.4,2.72c0.98,0,1.76-0.28,2.21-1.14h0.03
			c-0.1,0.33-0.15,0.69-0.22,0.99h1.12c0.09-0.71,0.22-1.42,0.37-2.15L200,26.69z"/>
		<path class="st0" d="M44.52,8.81h2.38l-2.13,10.01h4.67l-0.41,1.87H42L44.52,8.81z M55.56,10.28c-0.85,0-1.5,0.51-1.5,1.41
			c0,0.51,0.32,1.07,0.63,1.5c0.87-0.24,2.06-0.73,2.06-1.87C56.76,10.51,56.14,10.28,55.56,10.28L55.56,10.28z M53.71,15.33
			l2.11,3.2c-0.53,0.39-1.29,0.59-2.01,0.59c-1.13,0-2.08-0.47-2.08-1.72C51.73,16.2,52.72,15.7,53.71,15.33L53.71,15.33z
			 M57.25,20.69h2.55l-1.38-2.01c1.17-1.19,1.84-2.81,2.04-4.44h-2.08c-0.03,1.04-0.46,2.01-1.04,2.86l-1.72-2.47
			c1.58-0.58,3.1-1.43,3.1-3.32c0-1.87-1.87-2.71-3.29-2.71c-1.8,0-3.56,0.97-3.56,3.01c0,1.06,0.36,1.57,0.83,2.21
			c-1.73,0.53-3.27,1.72-3.27,3.69c0,2.4,2.04,3.37,4.14,3.37c1.11,0,2.47-0.34,3.23-0.88L57.25,20.69z M59.75,10.68h3.35
			l-2.16,10.01h2.48l2.16-10.01h3.35l0.39-1.87h-9.18L59.75,10.68z M71.34,20.69h2.38l1.09-5.21h3.98l0.37-1.87h-3.97l0.63-2.93
			h4.15l0.41-1.87h-6.55L71.34,20.69z M82.39,8.15l-0.48,2.18h2.28l0.48-2.18H82.39L82.39,8.15z M79.69,20.69h2.28l1.87-8.77h-2.28
			L79.69,20.69z M83.4,20.69h2.28l0.94-4.41c0.29-1.31,0.87-2.79,2.45-2.79c0.73,0,1.24,0.49,1.24,1.22c0,0.65-0.14,1.24-0.26,1.84
			l-0.85,4.14h2.28l0.92-4.26c0.12-0.54,0.29-1.24,0.29-1.91c0-1.74-1.14-2.81-2.86-2.81c-0.99,0-1.85,0.48-2.49,1.06h-0.03
			l0.15-0.85h-2.23c-0.04,0.27-0.12,0.73-0.22,1.26L83.4,20.69z M96.11,19.23c1.7,0,2.23-1.17,2.59-2.59h-0.8
			c-1.11,0-2.94,0.19-2.94,1.67C94.96,18.92,95.53,19.23,96.11,19.23L96.11,19.23z M98.11,20.69h1.92c0.2-1.65,1.07-5.09,1.07-6.27
			c0-2.06-1.65-2.7-3.4-2.7c-1.02,0-2.01,0.19-2.98,0.53l-0.32,1.82c0.9-0.42,1.87-0.68,2.88-0.68c0.8,0,1.75,0.26,1.75,1.14
			c0,0.26,0,0.51-0.07,0.75h-0.8c-2.14,0-5.38,0.22-5.38,3.11c0,1.62,1.12,2.5,2.71,2.5c1.26,0,2.04-0.56,2.82-1.55h0.03
			L98.11,20.69z M101.56,20.69h2.28l0.94-4.41c0.29-1.31,0.87-2.79,2.45-2.79c0.73,0,1.24,0.49,1.24,1.22
			c0,0.65-0.14,1.24-0.26,1.84l-0.85,4.14h2.28l0.92-4.26c0.12-0.54,0.29-1.24,0.29-1.91c0-1.74-1.14-2.81-2.86-2.81
			c-0.99,0-1.86,0.48-2.49,1.06h-0.03l0.15-0.85h-2.23c-0.04,0.27-0.12,0.73-0.22,1.26L101.56,20.69z M119.08,12.06
			c-0.61-0.19-1.43-0.34-2.28-0.34c-3.15,0-5.18,2.33-5.18,5.39c0,2.26,1.46,3.78,3.73,3.78c0.75,0,1.5-0.07,2.19-0.41l0.25-1.8
			c-0.59,0.29-1.29,0.44-1.85,0.44c-1.57,0-1.94-1.14-1.94-2.28c0-1.65,1.02-3.35,2.84-3.35c0.63,0,1.23,0.15,1.67,0.44
			L119.08,12.06z M121.2,8.15l-0.48,2.18h2.28l0.48-2.18H121.2L121.2,8.15z M118.5,20.69h2.28l1.87-8.77h-2.28L118.5,20.69z
			 M125.55,19.23c1.7,0,2.23-1.17,2.59-2.59h-0.8c-1.11,0-2.94,0.19-2.94,1.67C124.39,18.92,124.97,19.23,125.55,19.23L125.55,19.23
			z M127.54,20.69h1.92c0.2-1.65,1.07-5.09,1.07-6.27c0-2.06-1.65-2.7-3.4-2.7c-1.02,0-2.01,0.19-2.98,0.53l-0.32,1.82
			c0.9-0.42,1.87-0.68,2.88-0.68c0.8,0,1.75,0.26,1.75,1.14c0,0.26,0,0.51-0.07,0.75h-0.8c-2.14,0-5.38,0.22-5.38,3.11
			c0,1.62,1.12,2.5,2.71,2.5c1.26,0,2.04-0.56,2.82-1.55h0.03L127.54,20.69z M130.65,20.69h2.28l2.71-12.77h-2.28L130.65,20.69z
			 M149.17,9.14c-0.97-0.39-2.04-0.53-3.08-0.53c-2.28,0-4.42,1.09-4.42,3.59c0,3.16,4.05,2.82,4.05,4.97
			c0,1.27-1.12,1.85-2.27,1.85c-1.02,0-1.99-0.39-2.91-0.82l-0.61,2.02c1.07,0.39,2.25,0.66,3.39,0.66c2.61,0,4.89-1.06,4.89-3.97
			c0-3.3-4.05-3.18-4.05-5.09c0-1.02,1.14-1.36,1.99-1.36c0.87,0,1.77,0.26,2.47,0.62L149.17,9.14z M155.44,15.45
			c0.03-0.2,0.05-0.39,0.05-0.59c0-0.94-0.49-1.46-1.45-1.46c-1.41,0-2.03,0.85-2.47,2.06H155.44L155.44,15.45z M157.45,17.02
			c0.14-0.65,0.22-1.3,0.22-1.96c0-2.23-1.43-3.34-3.59-3.34c-2.88,0-4.99,2.62-4.99,5.35c0,2.6,1.7,3.83,4.22,3.83
			c0.94,0,1.91-0.22,2.79-0.49l0.29-1.81c-0.85,0.39-1.75,0.63-2.69,0.63c-1.57,0-2.43-0.6-2.43-2.21H157.45z M157.68,20.69h2.28
			l0.82-3.93c0.29-1.41,1.07-2.86,2.69-2.86c0.29,0,0.61,0.05,0.87,0.14l0.48-2.23c-0.27-0.07-0.58-0.08-0.87-0.08
			c-1.06,0-2.18,0.9-2.59,1.86h-0.03l0.3-1.65h-2.18c-0.07,0.41-0.14,0.8-0.2,1.17L157.68,20.69z M166.89,20.69h2.52l5.12-8.77
			h-2.42l-3.45,6.44h-0.04l-0.88-6.44h-2.33L166.89,20.69z M176.14,8.15l-0.48,2.18h2.28l0.48-2.18H176.14L176.14,8.15z
			 M173.43,20.69h2.28l1.87-8.77h-2.28L173.43,20.69z M184.94,12.06c-0.61-0.19-1.43-0.34-2.28-0.34c-3.15,0-5.17,2.33-5.17,5.39
			c0,2.26,1.46,3.78,3.73,3.78c0.75,0,1.5-0.07,2.2-0.41l0.26-1.8c-0.6,0.29-1.29,0.44-1.86,0.44c-1.57,0-1.94-1.14-1.94-2.28
			c0-1.65,1.02-3.35,2.84-3.35c0.63,0,1.22,0.15,1.67,0.44L184.94,12.06z M190.55,15.45c0.03-0.2,0.05-0.39,0.05-0.59
			c0-0.94-0.49-1.46-1.45-1.46c-1.41,0-2.03,0.85-2.47,2.06H190.55L190.55,15.45z M192.56,17.02c0.14-0.65,0.22-1.3,0.22-1.96
			c0-2.23-1.43-3.34-3.59-3.34c-2.88,0-4.99,2.62-4.99,5.35c0,2.6,1.7,3.83,4.22,3.83c0.94,0,1.91-0.22,2.79-0.49l0.29-1.81
			c-0.85,0.39-1.75,0.63-2.69,0.63c-1.57,0-2.43-0.6-2.43-2.21H192.56z M199.97,12.08c-0.8-0.2-1.65-0.36-2.48-0.36
			c-1.8,0-3.8,0.73-3.8,2.79c0,2.2,2.96,2.33,2.96,3.74c0,0.71-0.8,0.97-1.57,0.97c-0.88,0-1.53-0.32-2.18-0.68l-0.49,1.82
			c0.83,0.39,1.75,0.53,2.67,0.53c1.96,0,3.95-0.68,3.95-2.96c0-2.15-2.96-2.55-2.96-3.66c0-0.7,0.85-0.88,1.53-0.88
			c0.65,0,1.28,0.19,1.87,0.41L199.97,12.08z"/>
	</g>
</g>
</svg>
