<?xml version="1.0" encoding="utf-8"?>
<!-- Generator: Adobe Illustrator 23.1.0, SVG Export Plug-In . SVG Version: 6.00 Build 0)  -->
<svg version="1.1" id="Layer_1" xmlns="http://www.w3.org/2000/svg" xmlns:xlink="http://www.w3.org/1999/xlink" x="0px" y="0px"
	 viewBox="0 0 59 59" style="enable-background:new 0 0 59 59;" xml:space="preserve">
<style type="text/css">
	.st0{fill-rule:evenodd;clip-rule:evenodd;}
	.st1{fill-rule:evenodd;clip-rule:evenodd;fill:#FFC805;}
</style>
<title>942799</title>
<desc>Created with Sketch.</desc>
<g id="New-Desktop">
	<g transform="translate(-270.000000, -442.000000)">
		<g id="Group-4" transform="translate(124.000000, 413.000000)">
			<g transform="translate(146.000000, 29.000000)">
				<path id="Path" class="st0" d="M47.8,17.1c0.6,0,1.2-0.5,1.2-1.2V3.5C49,1.6,47.4,0,45.5,0H3.5C1.6,0,0,1.6,0,3.5v52.1
					C0,57.4,1.6,59,3.5,59h42.1c1.9,0,3.5-1.6,3.5-3.5v-8.5c0-0.6-0.5-1.2-1.2-1.2c-0.6,0-1.2,0.5-1.2,1.2v8.5
					c0,0.6-0.5,1.2-1.2,1.2H3.5c-0.6,0-1.2-0.5-1.2-1.2V3.5c0-0.6,0.5-1.2,1.2-1.2h42.1c0.6,0,1.2,0.5,1.2,1.2V16
					C46.7,16.6,47.2,17.1,47.8,17.1z"/>
				<path id="Fill-1" class="st1" d="M33,17c0,5-3.8,9-8.5,9c-4.7,0-8.5-4-8.5-9c0-5,3.8-9,8.5-9C29.2,8,33,12,33,17"/>
				<path id="Shape" d="M24.5,6C18.7,6,14,10.7,14,16.5c0,3,1.3,5.7,3.3,7.6c0,0,0.1,0.1,0.1,0.1c1.9,1.7,4.4,2.8,7.1,2.8
					s5.2-1,7.1-2.8c0,0,0.1-0.1,0.1-0.1c2-1.9,3.3-4.6,3.3-7.6C35,10.7,30.3,6,24.5,6z M24.5,24.7c-1.9,0-3.6-0.6-5-1.7
					c1-1.8,2.9-2.9,5-2.9s4,1.1,5,2.9C28.1,24.1,26.4,24.7,24.5,24.7z M22.7,16v-0.7c0-1,0.8-1.8,1.8-1.8s1.8,0.8,1.8,1.8V16
					c0,1-0.8,1.8-1.8,1.8S22.7,17.1,22.7,16z M31.1,21.4c-0.8-1.2-2-2.2-3.4-2.8c0.5-0.7,0.9-1.6,0.9-2.5v-0.7
					c0-2.3-1.8-4.1-4.1-4.1s-4.1,1.8-4.1,4.1V16c0,0.9,0.3,1.8,0.9,2.5c-1.4,0.6-2.5,1.6-3.4,2.8c-1-1.4-1.6-3-1.6-4.9
					c0-4.5,3.7-8.2,8.2-8.2s8.2,3.7,8.2,8.2C32.7,18.3,32.1,20,31.1,21.4z"/>
				<path class="st0" d="M30.9,51h-5.8c-0.6,0-1.1,0.4-1.1,1s0.5,1,1.1,1h5.8c0.6,0,1.1-0.4,1.1-1S31.5,51,30.9,51z"/>
				<path class="st0" d="M29.9,45H14.1c-0.6,0-1.1,0.4-1.1,1s0.5,1,1.1,1h15.8c0.6,0,1.1-0.4,1.1-1S30.5,45,29.9,45z"/>
				<path class="st0" d="M29.9,38H14.1c-0.6,0-1.1,0.4-1.1,1s0.5,1,1.1,1h15.8c0.6,0,1.1-0.4,1.1-1S30.5,38,29.9,38z"/>
				<path class="st0" d="M10.7,32.3C10.5,32.1,10.3,32,10,32c-0.3,0-0.5,0.1-0.7,0.3C9.1,32.5,9,32.7,9,33s0.1,0.5,0.3,0.7
					C9.5,33.9,9.7,34,10,34c0.3,0,0.5-0.1,0.7-0.3c0.2-0.2,0.3-0.4,0.3-0.7S10.9,32.5,10.7,32.3z"/>
				<path class="st0" d="M10.7,38.3C10.5,38.1,10.3,38,10,38c-0.3,0-0.5,0.1-0.7,0.3C9.1,38.5,9,38.7,9,39s0.1,0.5,0.3,0.7
					C9.5,39.9,9.7,40,10,40c0.3,0,0.5-0.1,0.7-0.3c0.2-0.2,0.3-0.4,0.3-0.7S10.9,38.5,10.7,38.3z"/>
				<path class="st0" d="M10.7,45.3C10.5,45.1,10.3,45,10,45c-0.3,0-0.5,0.1-0.7,0.3C9.1,45.5,9,45.7,9,46s0.1,0.5,0.3,0.7
					C9.5,46.9,9.7,47,10,47c0.3,0,0.5-0.1,0.7-0.3c0.2-0.2,0.3-0.4,0.3-0.7S10.9,45.5,10.7,45.3z"/>
				<path class="st0" d="M29.9,32H14.1c-0.6,0-1.1,0.4-1.1,1s0.5,1,1.1,1h15.8c0.6,0,1.1-0.4,1.1-1S30.5,32,29.9,32z"/>
				<path d="M56.6,14.7c-1.1-0.7-2.5-0.8-3.7-0.5c-1.3,0.3-2.3,1.2-3,2.3L35.2,42c-0.1,0.1-0.1,0.3-0.1,0.5l-1,9.3
					c-0.1,0.5,0.2,0.9,0.6,1.1c0.2,0.1,0.4,0.2,0.6,0.2c0.2,0,0.5-0.1,0.7-0.2l7.5-5.5c0.1-0.1,0.2-0.2,0.3-0.4l14.7-25.5
					C59.7,19,58.9,16,56.6,14.7z M36.6,49.3l0.5-4.8l3.4,2L36.6,49.3z M42.2,44.7l-4.4-2.6l11.8-20.5l4.4,2.6L42.2,44.7z M56.3,20.2
					l-1.1,2l-4.4-2.6l1.1-2c0.3-0.6,0.9-1,1.6-1.2c0.7-0.2,1.4-0.1,1.9,0.3c0.6,0.3,1,0.9,1.2,1.6S56.7,19.6,56.3,20.2z"/>
			</g>
		</g>
	</g>
</g>
</svg>
