<?xml version="1.0" standalone="no"?>
<!DOCTYPE svg PUBLIC "-//W3C//DTD SVG 1.1//EN" "http://www.w3.org/Graphics/SVG/1.1/DTD/svg11.dtd" >
<svg xmlns="http://www.w3.org/2000/svg">
<metadata>Generated by IcoMoon</metadata>
<defs>
<font id="icomoon" horiz-adv-x="1024">
<font-face units-per-em="1024" ascent="960" descent="-64" />
<missing-glyph horiz-adv-x="1024" />
<glyph unicode="&#x20;" horiz-adv-x="512" d="" />
<glyph unicode="&#xe900;" d="M545.032 801.652l-58.426-58.426c16.103-28.697 25.394-61.729 25.394-97.032 0-109.419-88.774-198.194-198.194-198.194-35.303 0-68.335 9.29-97.032 25.394l-58.426-58.426 320.619-320.619 386.684 386.684-320.619 320.619z" />
<glyph unicode="&#xe901;" d="M875.355 662.71c0-9.084-7.432-16.516-16.516-16.516s-16.516 7.432-16.516 16.516 7.432 16.516 16.516 16.516 16.516-7.432 16.516-16.516z" />
<glyph unicode="&#xe902;" d="M743.226 794.839c0-9.084-7.432-16.516-16.516-16.516s-16.516 7.432-16.516 16.516 7.432 16.516 16.516 16.516 16.516-7.432 16.516-16.516z" />
<glyph unicode="&#xe903;" d="M828.284-49.961l-23.329 186.632-45.213-45.213-103.845 103.845-72.877-72.877 103.845-103.845-45.213-45.213 186.632-23.329z" />
<glyph unicode="&#xe904;" d="M1009.961 131.716l-23.329 186.632-45.213-45.213-103.845 103.845-72.877-72.877 103.845-103.845-45.213-45.213 186.632-23.329z" />
<glyph unicode="&#xe905;" d="M153.394 221.523l23.329 23.329 99.097-99.097-23.329-23.329-99.097 99.097z" />
<glyph unicode="&#xe906;" d="M747.974 750.039l23.329 23.329 66.065-66.065-23.329-23.329-66.065 66.065z" />
<glyph unicode="&#xe907;" d="M594.581 520.877c-10.735-10.735-16.516-24.774-16.516-39.845s5.781-29.316 16.516-39.845l9.703-9.703c4.335-4.542 6.813-10.323 6.813-16.516s-2.477-12.181-6.813-16.516l-26.219-26.219-26.219 26.219c-4.335 4.335-6.813 10.323-6.813 16.516s2.477 12.181 6.813 16.516l21.265 21.265-23.329 23.329-21.265-21.265c-10.735-10.735-16.516-24.774-16.516-39.845 0-11.768 3.716-22.916 10.323-32.413l-22.090-22.090 23.329-23.329 21.265 21.265 33.032-33.032 49.548 49.548c10.735 10.735 16.516 24.774 16.516 39.845s-5.781 29.11-16.516 39.845l-9.703 9.703c-4.335 4.335-6.813 10.323-6.813 16.516s2.477 12.181 6.813 16.516l26.219 26.219 26.219-26.219c4.335-4.542 6.813-10.323 6.813-16.516s-2.477-12.181-6.813-16.516l-21.265-21.265 23.329-23.329 21.471 21.471c10.735 10.735 16.516 24.774 16.516 39.845 0 11.768-3.716 22.916-10.323 32.413l22.090 22.090-23.329 23.329-21.471-21.471-33.032 33.032-49.548-49.548z" />
<glyph unicode="&#xe908;" d="M995.716 648.258l-283.458 283.458c-17.961 17.961-42.735 28.284-68.129 28.284s-50.168-10.323-68.129-28.284l-122.839-122.839c-37.368 32.413-86.090 52.026-139.355 52.026-118.297 0-214.71-96.413-214.71-214.71 0-53.265 19.613-101.987 51.819-139.561l-122.632-122.632c-17.961-17.961-28.284-42.735-28.284-68.129s10.323-50.168 28.284-68.129l283.458-283.458c17.961-17.961 42.735-28.284 68.129-28.284s50.168 10.323 68.129 28.284l547.716 547.716c17.961 17.961 28.284 42.735 28.284 68.129s-10.323 50.168-28.284 68.129zM818.994 580.129h33.032l82.581-82.581-455.639-455.639-373.058 373.058 68.335 68.335c37.574-32.206 86.297-51.819 139.561-51.819 118.297 0 214.71 96.413 214.71 214.71 0 53.265-19.613 101.987-51.819 139.561l84.852 84.852 82.581-82.581v-33.032l174.865-174.865zM313.806 827.871c100.129 0 181.677-81.548 181.677-181.677s-81.548-181.677-181.677-181.677-181.677 81.548-181.677 181.677 81.548 181.677 181.677 181.677zM424.671-12.387c-11.768-11.768-28.077-18.581-44.8-18.581s-33.032 6.813-44.8 18.581l-283.458 283.458c-11.768 11.768-18.581 28.077-18.581 44.8s6.813 33.032 18.581 44.8l30.968 30.968 373.058-373.058-30.968-30.968zM972.387 535.329l-14.452-14.452-92.284 92.284h-33.032l-155.458 155.458v33.032l-92.284 92.284 14.452 14.452c11.768 11.768 28.077 18.581 44.8 18.581s33.032-6.813 44.8-18.581l283.458-283.458c11.768-11.768 18.581-28.077 18.581-44.8s-6.813-33.032-18.581-44.8z" />
<glyph unicode="&#xe909;" d="M468.645 692.026l-74.529 65.239-108.181-121.394-40.465 40.465-69.987-69.987 115.2-115.2 177.961 200.877zM222.142 606.348l23.329 23.329 41.703-41.703 109.626 122.839 24.981-21.884-132.748-149.677-66.89 67.097z" />
<glyph unicode="&#xe90a;" d="M302.039 353.652l23.329 23.329 165.161-165.161-23.329-23.329-165.161 165.161z" />
<glyph unicode="&#xe90b;" d="M351.587 403.2l23.329 23.329 165.161-165.161-23.329-23.329-165.161 165.161z" />
<glyph unicode="&#xe90c;" glyph-name="Agency" d="M1019.8 581.2v0l-0.2 0.4c0 0 0 0 0 0.2l-79.8 199.4c-4.6 11.4-15.6 18.8-27.8 18.8h-80v130c0 16.6-13.4 30-30 30h-580c-16.6 0-30-13.4-30-30v-130h-80c-12.2 0-23.2-7.4-27.8-18.8l-79.8-199.4c0 0 0 0 0-0.2l-0.2-0.4c-1.4-3.6-2.2-7.2-2.2-11.2v-44c0-45.2 24-85 60-107.2v-452.8c0-16.6 13.4-30 30-30h840c16.6 0 30 13.4 30 30v452.8c36 22.2 60 62 60 107.2v44c0 4-0.8 7.6-2.2 11.2v0zM252 900h520v-180h-520v180zM132.4 740h59.6v-50c0-16.6 13.4-30 30-30h580c16.6 0 30 13.4 30 30v50h59.6l56-140h-871.2l56 140zM638 540h132v-14c0-36.4-29.6-66-66-66s-66 29.6-66 66v14zM446 540h132v-14c0-36.4-29.6-66-66-66s-66 29.6-66 66v14zM254 540h132v-14c0-36.4-29.6-66-66-66s-66 29.6-66 66v14zM62 526v14h132v-14c0-36.4-29.6-66-66-66s-66 29.6-66 66zM242-4v280h180v-280h-180zM902-4h-420v310c0 16.6-13.4 30-30 30h-240c-16.6 0-30-13.4-30-30v-310h-60v404.2c2 0 4-0.2 6-0.2 38.4 0 72.8 17.4 96 44.6 23.2-27.2 57.6-44.6 96-44.6s72.8 17.4 96 44.6c23.2-27.2 57.6-44.6 96-44.6s72.8 17.4 96 44.6c23.2-27.2 57.6-44.6 96-44.6s72.8 17.4 96 44.6c23.2-27.2 57.6-44.6 96-44.6 2 0 4 0 6 0.2v-404.2zM962 526c0-36.4-29.6-66-66-66s-66 29.6-66 66v14h132v-14zM342 780h340c16.6 0 30 13.4 30 30s-13.4 30-30 30h-340c-16.6 0-30-13.4-30-30s13.4-30 30-30zM812 336h-240c-16.6 0-30-13.4-30-30v-180c0-16.6 13.4-30 30-30h240c16.6 0 30 13.4 30 30v180c0 16.6-13.4 30-30 30zM782 156h-180v120h180v-120zM352 196c-16.6 0-30-13.4-30-30v-40c0-16.6 13.4-30 30-30s30 13.4 30 30v40c0 16.6-13.4 30-30 30z" />
<glyph unicode="&#xe90d;" glyph-name="alternate-number" d="M994 840h-90v30c0 49.626-40.374 90-90 90h-664c-49.626 0-90-40.374-90-90v-30h-30c-16.568 0-30-13.432-30-30s13.432-30 30-30h30v-180h-30c-16.568 0-30-13.432-30-30s13.432-30 30-30h30v-184h-30c-16.568 0-30-13.432-30-30s13.432-30 30-30h30v-180h-30c-16.568 0-30-13.432-30-30s13.432-30 30-30h30v-30c0-49.626 40.374-90 90-90h664c49.626 0 90 40.374 90 90v210h90c16.568 0 30 13.432 30 30 0 20.222 0 520.644 0 544 0 16.568-13.432 30-30 30zM240-4h-90c-16.542 0-30 13.458-30 30v30h30c16.568 0 30 13.432 30 30s-13.432 30-30 30h-30v180h30c16.568 0 30 13.432 30 30s-13.432 30-30 30h-30v184h30c16.568 0 30 13.432 30 30s-13.432 30-30 30h-30v180h30c16.568 0 30 13.432 30 30s-13.432 30-30 30h-30v30c0 16.542 13.458 30 30 30h90v-904zM844 26c0-16.542-13.458-30-30-30h-514v904h514c16.542 0 30-13.458 30-30 0-7.572 0-836.37 0-844zM964 296h-60v120h60v-120zM964 476h-60v124h60v-124zM964 660h-60v120h60v-120zM657.88 634.296c22.266 21.798 36.12 52.158 36.12 85.704 0 66.168-53.832 120-120 120s-120-53.832-120-120c0-33.546 13.854-63.906 36.12-85.704-39.866-26.99-66.12-72.634-66.12-124.296v-124c0-16.568 13.432-30 30-30h240c16.568 0 30 13.432 30 30v124c0 51.662-26.254 97.306-66.12 124.296zM574 780c33.084 0 60-26.916 60-60s-26.916-60-60-60-60 26.916-60 60 26.916 60 60 60zM664 416h-180v94c0 49.626 40.374 90 90 90s90-40.374 90-90v-94zM634 236h-120c-16.568 0-30-13.432-30-30s13.432-30 30-30h120c16.568 0 30 13.432 30 30s-13.432 30-30 30zM694 116h-240c-16.568 0-30-13.432-30-30s13.432-30 30-30h240c16.568 0 30 13.432 30 30s-13.432 30-30 30z" />
<glyph unicode="&#xe90e;" glyph-name="Arrow" d="M796.462 487.956l-455.693 455.685c-10.54 10.548-24.609 16.359-39.611 16.359s-29.071-5.811-39.611-16.359l-33.559-33.55c-21.837-21.862-21.837-57.393 0-79.222l382.657-382.657-383.081-383.081c-10.54-10.548-16.359-24.609-16.359-39.603 0-15.010 5.819-29.071 16.359-39.628l33.559-33.542c10.548-10.548 24.609-16.359 39.611-16.359s29.071 5.811 39.611 16.359l456.118 456.101c10.565 10.581 16.367 24.709 16.334 39.728 0.033 15.077-5.769 29.196-16.334 39.769z" />
<glyph unicode="&#xe90f;" glyph-name="Branch" d="M932.822 116.352v378.884c35.902 20.822 60.118 59.654 60.118 104.060v30.058c0 6.868 2.646-3.058-60.118 185.232v55.238c0 49.722-40.454 90.176-90.176 90.176h-661.292c-49.722 0-90.176-40.454-90.176-90.176v-55.238c-62.348-187.046-59.070-176.544-59.694-180.412-0.56-3.35-0.422-1.612-0.422-34.878 0-44.404 24.216-83.236 60.118-104.060v-378.884c-49.724 0-90.176-40.454-90.176-90.176v-60.118c0-16.6 13.458-30.058 30.058-30.058h961.878c16.6 0 30.058 13.458 30.058 30.058v60.118c0 49.724-40.452 90.176-90.176 90.176zM872.704 539.178c-33.148 0-60.118 26.968-60.118 60.118h120.234c0.002-33.15-26.966-60.118-60.116-60.118zM421.824 418.944h-180.352c-16.6 0-30.058-13.458-30.058-30.058v-272.532h-60.118v362.706c35.884 0 68.128 15.822 90.176 40.834 22.050-25.010 54.292-40.834 90.176-40.834s68.128 15.822 90.176 40.834c22.050-25.010 54.292-40.834 90.176-40.834s68.128 15.822 90.176 40.834c22.050-25.010 54.292-40.834 90.176-40.834s68.128 15.822 90.176 40.834c22.050-25.010 54.292-40.834 90.176-40.834v-362.708h-420.822v272.532c0 16.6-13.458 30.060-30.058 30.060zM271.53 298.708v60.118h120.234v-60.118h-120.234zM391.766 238.592v-122.238h-120.234v122.238h120.234zM391.766 599.296c0-33.148-26.968-60.118-60.118-60.118-33.148 0-60.118 26.968-60.118 60.118h120.236zM276.954 659.412l20.040 120.234h94.772v-120.234h-114.812zM572.118 599.296c0-33.148-26.968-60.118-60.118-60.118s-60.118 26.968-60.118 60.118h120.236zM451.882 659.412v120.236h120.234v-120.234h-120.234zM752.47 599.296c0-33.148-26.968-60.118-60.118-60.118-33.148 0-60.118 26.968-60.118 60.118h120.236zM632.234 659.412v120.236h94.772l20.040-120.234h-114.812zM921.176 659.412h-113.184l-20.040 120.234h93.144l40.080-120.234zM151.296 869.824c0 16.574 13.484 30.058 30.058 30.058h661.292c16.574 0 30.058-13.484 30.058-30.058v-30.058c-9.144 0-710.54 0-721.408 0v30.058zM142.904 779.648h93.144l-20.040-120.234h-113.184l40.080 120.234zM211.412 599.296c0-33.148-26.968-60.118-60.118-60.118-33.148 0-60.118 26.968-60.118 60.118h120.236zM962.88-3.882h-901.76v30.058c0 16.574 13.484 30.058 30.058 30.058 21.154 0 817.11 0 841.644 0 16.574 0 30.058-13.484 30.058-30.058v-30.058zM782.528 418.944h-240.47c-16.6 0-30.058-13.458-30.058-30.058v-180.352c0-16.6 13.458-30.058 30.058-30.058h240.47c16.6 0 30.058 13.458 30.058 30.058v180.352c0.002 16.598-13.458 30.058-30.058 30.058zM752.47 238.592h-180.352v120.234h180.352v-120.234z" />
<glyph unicode="&#xe910;" glyph-name="close" d="M605.685 447.066l398.706 398.706c25.833 25.833 25.833 67.852 0 93.685s-67.852 25.833-93.685 0l-398.706-398.395-398.706 398.706c-25.833 25.833-67.852 25.833-93.685 0s-25.833-67.852 0-93.685l398.706-398.706-398.706-399.018c-25.833-25.833-25.833-67.852 0-93.685 13.072-13.072 29.88-19.297 46.998-19.297s33.926 6.536 46.998 19.297l398.706 398.706 398.395-398.706c13.072-13.072 29.88-19.297 46.998-19.297s33.926 6.536 46.998 19.297c25.833 25.833 25.833 67.852 0 93.685l-399.018 398.706z" />
<glyph unicode="&#xe911;" glyph-name="debit" d="M510 358c-82.71 0-150-67.29-150-150s67.29-150 150-150 150 67.29 150 150c0 82.71-67.29 150-150 150zM510 118c-49.626 0-90 40.374-90 90s40.374 90 90 90 90-40.374 90-90-40.374-90-90-90zM300 208c0-16.569-13.431-30-30-30s-30 13.431-30 30c0 16.569 13.431 30 30 30s30-13.431 30-30zM784 208c0-16.569-13.431-30-30-30s-30 13.431-30 30c0 16.569 13.431 30 30 30s30-13.431 30-30zM754 840c-64.732 0-155.422-7.072-214-28.83v58.83c0 79.124-191.422 90-270 90s-270-10.836-270-90c0-32.858 0-869.136 0-904 0-16.568 13.432-30 30-30h964c16.568 0 30 13.432 30 30 0 14.558 0 771.222 0 784 0 79.124-191.422 90-270 90zM754 780c56.142 0 153.774-6.484 201.324-30-47.46-23.47-144.614-30-201.324-30-58.29 0-155.878 6.862-204.488 30 49.536 23.578 148.562 30 204.488 30zM540 540v-60h-60v60h60zM270 900c56.142 0 153.772-6.484 201.324-30-47.46-23.47-144.614-30-201.324-30-56.142 0-153.772 6.484-201.324 30 47.46 23.47 144.614 30 201.324 30zM60 808.354c58.154-21.636 146.526-28.354 210-28.354 63.458 0 151.912 6.744 210 28.354v-53.198c-5.95-4.594-24.068-13.946-63.262-22.044-40.912-8.456-93.026-13.112-146.738-13.112-77.898 0-180.11 12.076-210 35.156v53.198zM60 688.354c58.154-21.636 146.526-28.354 210-28.354 63.458 0 151.912 6.744 210 28.354v-53.198c-5.95-4.594-24.068-13.946-63.262-22.044-40.912-8.456-93.026-13.112-146.738-13.112-77.898 0-180.11 12.076-210 35.156v53.198zM60 540h360v-60h-360v60zM60 420h86.318c-10.746-43.044-44.048-77.038-86.318-88.14v88.14zM60-4v88.14c42.27-11.102 75.572-45.096 86.318-88.14h-86.318zM816.508-4h-609.016c-12.532 75.71-72.080 136.554-147.492 149.418v125.164c75.344 12.852 134.948 73.632 147.492 149.418h609.014c12.532-75.71 72.080-136.554 147.492-149.418v-125.164c-75.342-12.852-134.946-73.632-147.49-149.418zM964-4h-86.318c10.746 43.044 44.050 77.038 86.318 88.14v-88.14zM964 331.86c-42.27 11.102-75.574 45.096-86.318 88.14h86.318v-88.14zM964 480h-364v60h364v-60zM964 635.156c-5.95-4.594-24.068-13.946-63.262-22.044-40.912-8.456-93.026-13.112-146.738-13.112-108.574 0-191.4 18.534-214 35.458v53.372c59.024-21.922 149.952-28.83 214-28.83 63.458 0 151.912 6.744 210 28.354v-53.198z" />
<glyph unicode="&#xe912;" glyph-name="Email" d="M934 838h-844c-49.564 0-90-40.392-90-90v-600c0-49.44 40.256-90 90-90h844c49.44 0 90 40.256 90 90v600c0 49.44-40.256 90-90 90zM921.572 778l-407.664-407.666-411.19 407.666h818.854zM60 160.424v575.438l288.958-286.48-288.958-288.958zM102.426 118l289.14 289.14 101.314-100.444c11.728-11.628 30.654-11.59 42.334 0.092l98.786 98.786 287.574-287.574h-819.148zM964 160.426l-287.574 287.574 287.574 287.576v-575.15z" />
<glyph unicode="&#xe913;" glyph-name="FAQ" d="M982.844 682.282c-26.016 53.218-64.258 98.302-113.662 133.998-87.576 63.278-211.088 96.72-357.182 96.72s-269.606-33.442-357.182-96.718c-49.404-35.696-87.646-80.78-113.662-133.998-27.308-55.866-41.156-120.894-41.156-193.284 0-156.57 64.57-276.344 187.228-348.39-16.966-59.862-38.984-96.14-39.182-96.462l-37.968-61.042 72.122-0.106c0.208-0.002 0.416-0.002 0.638-0.002 22.694 0 126.812 4.896 211.47 89.82 37.32-5.192 76.806-7.818 117.692-7.818 146.094 0 269.606 33.446 357.182 96.72 49.404 35.696 87.646 80.78 113.662 133.998 27.308 55.866 41.156 120.896 41.156 193.282 0 72.39-13.848 137.418-41.156 193.282zM822.328 226.568c-73.854-53.36-181.162-81.568-310.328-81.568-44.38 0-86.728 3.372-125.87 10.018l-22.27 3.782-14.738-17.118c-31.668-36.782-68.228-56.42-99.264-66.878 8.060 21.744 16.222 47.838 22.808 77.572l6.788 30.64-28.144 13.882c-113.674 56.072-171.31 154.352-171.31 292.102 0 115.806 40.936 204.102 121.672 262.434 73.854 53.362 181.162 81.566 310.328 81.566s236.474-28.206 310.328-81.566c80.736-58.33 121.672-146.626 121.672-262.434s-40.936-204.098-121.672-262.432zM472 305h80v-80h-80v80zM528.020 748.012c-45.996 5.036-91.79-9.496-125.676-39.872-33.266-29.818-52.344-72.514-52.344-117.14h80c0 22.244 9.142 42.692 25.742 57.572 17.232 15.448 39.81 22.522 63.562 19.916 36.638-4.016 66.154-33.2 70.186-69.398 3.244-29.148-9.776-57.56-33.982-74.144-53.542-36.686-85.508-96.478-85.508-159.946h80c0 37.068 18.962 72.188 50.726 93.95 48.634 33.324 74.794 90.414 68.272 148.994-8.14 73.102-67.43 132.010-140.978 140.068z" />
<glyph unicode="&#xe914;" glyph-name="foreclosure" d="M955.2 650.2l-179.8 179c-5.6 5.6-13.2 8.8-21.2 8.8h-30v62.2c15.6 1.2 27.8 14 27.8 29.8 0 16.6-13.4 30-30 30h-180c-16.6 0-30-13.4-30-30s13.4-30 30-30v-62h-270c-7.8 0-15.4-3-21-8.6l-182.2-179c-19-18.8-5.8-51.4 21-51.4h31.8v-181c-16.6 0-30-13.4-30-30s13.4-30 30-30v-210c0-16.6 13.4-30 30-30h152c13.8-102.6 101.8-182 208.2-182s194.4 79.4 208.2 182h151.8c16.6 0 30 13.4 30 30v210c16.6 0 30 13.4 30 30s-13.4 30-30 30v0 181h32.2c26.6 0 40.2 32.4 21.2 51.2v0zM601.8 900h62.4v-62h-62.4v62zM284.4 778h457.4l119.6-119h-219.2l-112 85c-10.8 8.2-25.6 8.2-36.2 0l-112-85h-218.6l121 119zM181.8 358h180.2v-60h-30.2c-16.6 0-30-13.4-30-30v-90h-120v180zM601.8 298h-179.8v90c0 49.6 40.4 89.8 89.8 89.8 49.6 0 89.8-40.4 89.8-89.8v-90zM661.8 146c0-82.8-67.2-150-150-150s-150 67.2-150 150v92h300v-92zM841.8 178h-120v90c0 16.6-13.4 30-30 30h-30v60h180v-180zM841.8 418h-183c-14 68.4-74.4 120-146.8 120s-133-51.6-146.8-120h-183.4v181h210.2c6.6 0 13 2.2 18.2 6.2l101.8 77.2 102-77.2c5.2-4 11.6-6 18.2-6h209.8v-181.2zM511.8 176c-16.6 0-30-13.4-30-30v-58c0-16.6 13.4-30 30-30s30 13.4 30 30v58c0 16.6-13.4 30-30 30z" />
<glyph unicode="&#xe915;" glyph-name="Home" d="M1006.802 502.232l-86.506 78.822v261.366c0 16.63-13.482 30.114-30.114 30.114h-208.23c-16.63 0-30.114-13.482-30.114-30.114v-16.748l-104.472 95.194c-20.166 18.378-50.576 18.376-70.734 0.002l-459.436-418.638c-16.152-14.72-21.49-37.4-13.598-57.778 7.894-20.378 27.114-33.544 48.968-33.544h73.378v-419.442c0-16.63 13.482-30.114 30.114-30.114h251.826c16.63 0 30.114 13.482 30.114 30.114v254.672h148.002v-254.674c0-16.63 13.482-30.114 30.114-30.114h251.816c16.63 0 30.114 13.482 30.112 30.114v419.442h73.394c21.852 0 41.074 13.168 48.968 33.544 7.89 20.38 2.554 43.060-13.602 57.782zM867.93 471.134c-16.63 0-30.114-13.482-30.114-30.114v-419.442h-191.586v254.674c0 16.63-13.484 30.114-30.114 30.114h-208.232c-16.63 0-30.114-13.482-30.114-30.114v-254.674h-191.6v419.442c0 16.63-13.482 30.114-30.114 30.114h-83.566l439.512 400.48 149.672-136.382c8.816-8.032 21.542-10.102 32.448-5.288 10.908 4.82 17.946 15.624 17.946 27.548v54.814h148.004v-244.552c0-8.474 3.568-16.552 9.832-22.26l81.606-74.36h-83.58z" />
<glyph unicode="&#xe916;" glyph-name="Mobile" d="M742.506 960h-462.075c-36.754 0-66.921-30.168-66.921-67.134v-890.583c0-36.966 30.168-67.134 66.921-67.134h462.075c36.966 0 66.921 30.168 66.921 67.134v890.583c0.212 36.966-29.955 67.134-66.921 67.134v0zM277.245 781.968h468.661v-627.572h-468.661v627.572zM280.644 896.266h461.862c1.912 0 3.399-1.487 3.399-3.399v-47.163h-468.661v47.163c0 1.912 1.487 3.399 3.399 3.399zM742.506-0.903h-461.862c-1.912 0-3.187 1.487-3.187 3.399v88.166h468.661v-88.166c-0.212-1.912-1.7-3.399-3.612-3.399v0zM547.266 43.924c0-19.712-15.98-35.691-35.691-35.691s-35.691 15.98-35.691 35.691c0 19.712 15.98 35.691 35.691 35.691s35.691-15.98 35.691-35.691z" />
<glyph unicode="&#xe917;" glyph-name="onlinepay" d="M947.25 858.001h-374.732c-41.281 0-74.746-33.465-74.746-74.746v-100.396h-350.885c-55.709 0-100.997-45.288-100.997-100.997v-376.335h-18.035c-16.632 0-30.059-13.426-30.059-30.059v-49.897c0-50.298 40.88-91.178 91.178-91.178h752.069c50.298 0 91.178 40.88 91.178 91.178v49.897c0 16.632-13.426 30.059-30.059 30.059h-1.403v292.171h46.29c41.281 0 74.746 33.465 74.746 74.746v210.812c0.2 41.281-33.265 74.746-74.546 74.746zM572.518 798.084h374.732c8.216 0 14.829-6.613 14.829-14.829v-30.86h-404.189v30.86c0 8.016 6.613 14.829 14.629 14.829zM872.504 125.57c0-17.234-14.027-31.261-31.261-31.261h-752.069c-17.234 0-31.261 14.027-31.261 31.261v19.839h814.391v-19.839zM841.043 205.526h-735.036v376.335c0 22.644 18.436 41.080 41.080 41.080h350.885v-50.499c0-41.281 33.465-74.746 74.746-74.746h268.324v-292.171zM947.25 557.814h-374.732c-8.216 0-14.829 6.613-14.829 14.829v119.834h404.189v-119.834c0.2-8.216-6.413-14.829-14.629-14.829zM656.683 613.323c0 19.438-15.831 35.269-35.269 35.269s-35.269-15.831-35.269-35.269 15.831-35.269 35.269-35.269 35.269 15.831 35.269 35.269zM749.464 613.323c0 19.438-15.831 35.269-35.269 35.269s-35.269-15.831-35.269-35.269 15.831-35.269 35.269-35.269 35.269 15.831 35.269 35.269z" />
<glyph unicode="&#xe918;" glyph-name="rupee" d="M826.64 692.349h-151.074c-8.624 83.269-53.53 160.591-119.253 208.173h270.328c16.356 0 29.739 13.383 29.739 29.739s-13.383 29.739-29.739 29.739h-629.277c-16.356 0-29.739-13.383-29.739-29.739s13.383-29.739 29.739-29.739h180.218c122.525 0 223.637-92.191 238.209-208.173h-418.428c-16.356 0-29.739-13.383-29.739-29.739s13.383-29.739 29.739-29.739h418.428c-14.869-120.443-117.172-210.85-238.209-211.147h-179.921c-16.654-0.297-30.036-13.977-29.739-30.631 0-8.030 3.569-15.762 9.219-21.412l449.951-425.565c11.896-11.301 30.631-10.706 41.932 1.19 11.301 12.193 10.706 30.929-1.19 42.527l-395.826 374.414h105.276c155.238 0 283.413 118.956 298.282 270.625h151.074c16.356 0 29.739 13.383 29.739 29.739s-13.383 29.739-29.739 29.739z" />
<glyph unicode="&#xe919;" glyph-name="scedule" d="M58.514 841.781h63.39v-48.762c0-9.752 9.752-14.629 14.629-14.629h117.029c9.752 0 14.629 9.752 14.629 14.629v48.762h365.714v-48.762c0-9.752 9.752-14.629 14.629-14.629h117.029c9.752 0 14.629 9.752 14.629 14.629v48.762h68.267v-131.657h-789.943v131.657zM156.038 910.047h82.895v-97.524h-82.895v97.524zM672.914 910.047h82.895v-97.524h-82.895v97.524zM424.229 27.457h-365.714v648.533h799.695v-214.552c0-9.752 9.752-14.629 14.629-14.629s14.629 9.752 14.629 14.629v399.848c0 9.752-9.752 14.629-14.629 14.629h-82.895v48.762c0 9.752-9.752 14.629-14.629 14.629h-117.029c-9.752 0-14.629-9.752-14.629-14.629v-48.762h-370.59v48.762c0 9.752-9.752 14.629-14.629 14.629h-117.029c-9.752 4.876-19.505-4.876-19.505-14.629v-48.762h-82.895c-4.876 0-14.629-4.876-14.629-14.629v-848.457c0-9.752 9.752-14.629 14.629-14.629h380.343c9.752 0 14.629 9.752 14.629 14.629s0 14.629-9.752 14.629zM674.766 278.007l-14.629-19.505h48.762c4.876 0 39.010 0 53.638-24.381h-87.771l-14.629-29.257h107.276c0 0 0 0 0 0s0-53.638-97.524-43.886v-19.505l102.4-112.152h39.010l-97.524 112.152c0 0 78.019 0 92.648 63.39 0 0 0 0 0 0h34.133l19.505 24.381h-48.762c0 9.752-4.876 19.505-14.629 24.381h48.762l14.629 24.381h-185.295zM747.909 360.902c107.276 0 190.171-87.771 190.171-190.171 0-107.276-87.771-190.171-190.171-190.171-107.276 0-190.171 87.771-190.171 190.171s82.895 190.171 190.171 190.171zM747.909 385.283c-121.905 0-219.429-97.524-219.429-219.429s97.524-219.429 219.429-219.429 219.429 97.524 219.429 219.429c0 121.905-97.524 219.429-219.429 219.429zM156.038 515.076h185.295v48.762h-185.295zM156.038 388.295h185.295v43.886h-185.295zM156.038 261.514h185.295v43.886h-185.295zM555.886 515.076h185.295v48.762h-185.295z" />
<glyph unicode="&#xe91b;" glyph-name="welcomeletter" d="M814 718h-90v62h150c16.6 0 30 13.4 30 30v120c0 16.6-13.4 30-30 30h-180c-16.6 0-30-13.4-30-30v-212h-454c-115.8 0-210-94.2-210-210v-300c0-16.6 13.4-30 30-30h390v-212c0-16.6 13.4-30 30-30h124c16.6 0 30 13.4 30 30v212h390c16.6 0 30 13.4 30 30v300c0 115.8-94.2 210-210 210zM844 840h-120v60h120v-60zM60 238v270c0 82.8 67.2 150 150 150s150-67.2 150-150v-270h-300zM544-4h-64v182h64v-182zM964 238h-544v270c0 58.8-24.2 111.8-63.2 150h307.2v-65.2c-35-12.4-60-45.8-60-84.8 0-49.6 40.4-90 90-90s90 40.4 90 90c0 39.2-25 72.4-60 84.8v65.2h90c82.8 0 150-67.2 150-150v-270zM694 538c16.6 0 30-13.4 30-30s-13.4-30-30-30-30 13.4-30 30 13.4 30 30 30zM270 478h-120c-16.6 0-30-13.4-30-30s13.4-30 30-30h120c16.6 0 30 13.4 30 30s-13.4 30-30 30z" />
</font>
</defs>
</svg>
